  0
SECTION
  2
HEADER
  9
$ACADVER
  1
AC1009
  9
$INSBASE
 10
0.0
 20
0.0
 30
0.0
  9
$EXTMIN
 10
0.0
 20
0.0
 30
0.0
  9
$EXTMAX
 10
100.0
 20
100.0
 30
0.0
  9
$UNITMODE
 70
0
  9
$AUNITS
 70
0
  9
$ANGBASE
 50
0.0
  9
$ANGDIR
 70
0
  0
ENDSEC
  0
SECTION
  2
TABLES
  0
TABLE
  2
LTYPE
 70
19
  0
LTYPE
  2
CONTINUOUS
 70
0
  3
Solid
 72
65
 73
0
 40
0.0
  0
LTYPE
  2
CENTER
 70
0
  3
Center ____ _ ____ _ ____ _ ____ _ ____ _ ____
 72
65
 73
4
 40
2.0
 49
1.25
 49
-0.25
 49
0.25
 49
-0.25
  0
LTYPE
  2
CENTERX2
 70
0
  3
Center (2x) ________  __  ________  __  ________
 72
65
 73
4
 40
3.5
 49
2.5
 49
-0.25
 49
0.5
 49
-0.25
  0
LTYPE
  2
CENTER2
 70
0
  3
Center (.5x) ____ _ ____ _ ____ _ ____ _ ____
 72
65
 73
4
 40
1.0
 49
0.625
 49
-0.125
 49
0.125
 49
-0.125
  0
LTYPE
  2
DASHED
 70
0
  3
Dashed __ __ __ __ __ __ __ __ __ __ __ __ __ _
 72
65
 73
2
 40
0.6
 49
0.5
 49
-0.1
  0
LTYPE
  2
DASHEDX2
 70
0
  3
Dashed (2x) ____  ____  ____  ____  ____  ____
 72
65
 73
2
 40
1.2
 49
1.0
 49
-0.2
  0
LTYPE
  2
DASHED2
 70
0
  3
Dashed (.5x) _ _ _ _ _ _ _ _ _ _ _ _ _ _
 72
65
 73
2
 40
0.3
 49
0.25
 49
-0.05
  0
LTYPE
  2
PHANTOM
 70
0
  3
Phantom ______  __  __  ______  __  __  ______
 72
65
 73
6
 40
2.5
 49
1.25
 49
-0.25
 49
0.25
 49
-0.25
 49
0.25
 49
-0.25
  0
LTYPE
  2
PHANTOMX2
 70
0
  3
Phantom (2x)____________    ____    ____    ____________
 72
65
 73
6
 40
4.25
 49
2.5
 49
-0.25
 49
0.5
 49
-0.25
 49
0.5
 49
-0.25
  0
LTYPE
  2
PHANTOM2
 70
0
  3
Phantom (.5x) ___ _ _ ___ _ _ ___ _ _ ___ _ _ ___
 72
65
 73
6
 40
1.25
 49
0.625
 49
-0.125
 49
0.125
 49
-0.125
 49
0.125
 49
-0.125
  0
LTYPE
  2
DASHDOT
 70
0
  3
Dash dot __ . __ . __ . __ . __ . __ . __ . __
 72
65
 73
4
 40
1.4
 49
1.0
 49
-0.2
 49
0.0
 49
-0.2
  0
LTYPE
  2
DASHDOTX2
 70
0
  3
Dash dot (2x) ____  .  ____  .  ____  .  ____
 72
65
 73
4
 40
2.4
 49
2.0
 49
-0.2
 49
0.0
 49
-0.2
  0
LTYPE
  2
DASHDOT2
 70
0
  3
Dash dot (.5x) _ . _ . _ . _ . _ . _ . _ . _
 72
65
 73
4
 40
0.7
 49
0.5
 49
-0.1
 49
0.0
 49
-0.1
  0
LTYPE
  2
DOT
 70
0
  3
Dot .  .  .  .  .  .  .  .  .  .  .  .  .  .  .  .
 72
65
 73
2
 40
0.2
 49
0.0
 49
-0.2
  0
LTYPE
  2
DOTX2
 70
0
  3
Dot (2x) .    .    .    .    .    .    .    . 
 72
65
 73
2
 40
0.4
 49
0.0
 49
-0.4
  0
LTYPE
  2
DOT2
 70
0
  3
Dot (.5) . . . . . . . . . . . . . . . . . . . 
 72
65
 73
2
 40
0.1
 49
0.0
 49
-0.1
  0
LTYPE
  2
DIVIDE
 70
0
  3
Divide __ . . __ . . __ . . __ . . __ . . __
 72
65
 73
6
 40
1.6
 49
1.0
 49
-0.2
 49
0.0
 49
-0.2
 49
0.0
 49
-0.2
  0
LTYPE
  2
DIVIDEX2
 70
0
  3
Divide (2x) ____  . .  ____  . .  ____  . .  ____
 72
65
 73
6
 40
2.6
 49
2.0
 49
-0.2
 49
0.0
 49
-0.2
 49
0.0
 49
-0.2
  0
LTYPE
  2
DIVIDE2
 70
0
  3
Divide(.5x) _ . _ . _ . _ . _ . _ . _ . _
 72
65
 73
6
 40
0.8
 49
0.5
 49
-0.1
 49
0.0
 49
-0.1
 49
0.0
 49
-0.1
  0
ENDTAB
  0
TABLE
  2
LAYER
 70
5
  0
LAYER
  2
DIMENSIONS
 70
0
 62
1
  6
CONTINUOUS
  0
LAYER
  2
TABLEBACKGROUND
 70
0
 62
1
  6
CONTINUOUS
  0
LAYER
  2
TABLECONTENT
 70
0
 62
1
  6
CONTINUOUS
  0
LAYER
  2
TABLEGRID
 70
0
 62
1
  6
CONTINUOUS
  0
LAYER
  2
VIEWPORTS
 70
0
 62
7
  6
CONTINUOUS
  0
ENDTAB
  0
TABLE
  2
STYLE
 70
12
  0
STYLE
  2
STANDARD
 70
0
 40
0.0
 41
1.0
 42
1.0
 50
0.0
 71
0
  3
arial.ttf
  4

  0
STYLE
  2
ARIAL
 70
0
 40
0.0
 41
1.0
 42
1.0
 50
0.0
 71
0
  3
arial.ttf
  4

  0
STYLE
  2
ARIAL_BOLD
 70
0
 40
0.0
 41
1.0
 42
1.0
 50
0.0
 71
0
  3
arialbd.ttf
  4

  0
STYLE
  2
ARIAL_ITALIC
 70
0
 40
0.0
 41
1.0
 42
1.0
 50
0.0
 71
0
  3
ariali.ttf
  4

  0
STYLE
  2
ARIAL_BOLD_ITALIC
 70
0
 40
0.0
 41
1.0
 42
1.0
 50
0.0
 71
0
  3
arialbi.ttf
  4

  0
STYLE
  2
ARIAL_BLACK
 70
0
 40
0.0
 41
1.0
 42
1.0
 50
0.0
 71
0
  3
ariblk.ttf
  4

  0
STYLE
  2
ISOCPEUR
 70
0
 40
0.0
 41
1.0
 42
1.0
 50
0.0
 71
0
  3
isocpeur.ttf
  4

  0
STYLE
  2
ISOCPEUR_ITALIC
 70
0
 40
0.0
 41
1.0
 42
1.0
 50
0.0
 71
0
  3
isocpeui.ttf
  4

  0
STYLE
  2
TIMES
 70
0
 40
0.0
 41
1.0
 42
1.0
 50
0.0
 71
0
  3
times.ttf
  4

  0
STYLE
  2
TIMES_BOLD
 70
0
 40
0.0
 41
1.0
 42
1.0
 50
0.0
 71
0
  3
timesbd.ttf
  4

  0
STYLE
  2
TIMES_ITALIC
 70
0
 40
0.0
 41
1.0
 42
1.0
 50
0.0
 71
0
  3
timesi.ttf
  4

  0
STYLE
  2
TIMES_BOLD_ITALIC
 70
0
 40
0.0
 41
1.0
 42
1.0
 50
0.0
 71
0
  3
timesbi.ttf
  4

  0
ENDTAB
  0
TABLE
  2
VIEW
 70
0
  0
ENDTAB
  0
TABLE
  2
APPID
 70
1
  0
APPID
  2
DXFWRITE
 70
0
  0
ENDTAB
  0
TABLE
  2
VPORT
 70
0
  0
ENDTAB
  0
TABLE
  2
UCS
 70
0
  0
ENDTAB
  0
ENDSEC
  0
SECTION
  2
BLOCKS
  0
ENDSEC
  0
SECTION
  2
ENTITIES
  0
VIEWPORT
  8
VIEWPORTS
 67
1
 10
0.0
 20
0.0
 30
0.0
 40
1.0
 41
1.0
 68
1
 69
1
1001
ACAD
1000
MVIEW
1002
{
1070
16
1010
0.0
1020
0.0
1030
0.0
1010
0.0
1020
0.0
1030
0.0
1040
0.0
1040
1.0
1040
0.0
1040
0.0
1040
50.0
1040
0.0
1040
0.0
1070
0
1070
100
1070
1
1070
3
1070
0
1070
0
1070
0
1070
0
1040
0.0
1040
0.0
1040
0.0
1040
0.1
1040
0.1
1040
0.1
1040
0.1
1070
0
1002
{
1002
}
1002
}
  0
TEXT
 62
7
  8
tekst
 10
0.0
 20
0.0
 30
0.0
 40
0.4
  1
S
 50
0.0
  0
TEXT
 62
7
  8
wysokosc
 10
-1.2
 20
-0.4
 30
0.0
 40
0.4
  1
18.0
 50
0.0
  0
POINT
 62
7
  8
punkty
 10
0.0
 20
0.0
 30
18.0
  0
TEXT
 62
7
  8
tekst
 10
0.0
 20
-8.8
 30
0.0
 40
0.4
  1
1
 50
0.0
  0
TEXT
 62
7
  8
wysokosc
 10
-1.2
 20
-9.200000000000001
 30
0.0
 40
0.4
  1
43.0
 50
0.0
  0
POINT
 62
7
  8
punkty
 10
0.0
 20
-8.8
 30
43.0
  0
TEXT
 62
7
  8
tekst
 10
0.0
 20
-6.6
 30
0.0
 40
0.4
  1
2
 50
0.0
  0
TEXT
 62
7
  8
wysokosc
 10
-1.2
 20
-7.0
 30
0.0
 40
0.4
  1
33.0
 50
0.0
  0
POINT
 62
7
  8
punkty
 10
0.0
 20
-6.6
 30
33.0
  0
TEXT
 62
7
  8
tekst
 10
0.0
 20
-4.4
 30
0.0
 40
0.4
  1
3
 50
0.0
  0
TEXT
 62
7
  8
wysokosc
 10
-1.2
 20
-4.800000000000001
 30
0.0
 40
0.4
  1
94.0
 50
0.0
  0
POINT
 62
7
  8
punkty
 10
0.0
 20
-4.4
 30
94.0
  0
TEXT
 62
7
  8
tekst
 10
0.0
 20
-2.2
 30
0.0
 40
0.4
  1
4
 50
0.0
  0
TEXT
 62
7
  8
wysokosc
 10
-1.2
 20
-2.6
 30
0.0
 40
0.4
  1
39.0
 50
0.0
  0
POINT
 62
7
  8
punkty
 10
0.0
 20
-2.2
 30
39.0
  0
TEXT
 62
7
  8
tekst
 10
0.0
 20
2.2
 30
0.0
 40
0.4
  1
5
 50
0.0
  0
TEXT
 62
7
  8
wysokosc
 10
-1.2
 20
1.8000000000000003
 30
0.0
 40
0.4
  1
82.0
 50
0.0
  0
POINT
 62
7
  8
punkty
 10
0.0
 20
2.2
 30
82.0
  0
TEXT
 62
7
  8
tekst
 10
0.0
 20
4.4
 30
0.0
 40
0.4
  1
6
 50
0.0
  0
TEXT
 62
7
  8
wysokosc
 10
-1.2
 20
4.0
 30
0.0
 40
0.4
  1
35.0
 50
0.0
  0
POINT
 62
7
  8
punkty
 10
0.0
 20
4.4
 30
35.0
  0
TEXT
 62
7
  8
tekst
 10
0.0
 20
6.6
 30
0.0
 40
0.4
  1
7
 50
0.0
  0
TEXT
 62
7
  8
wysokosc
 10
-1.2
 20
6.199999999999999
 30
0.0
 40
0.4
  1
80.0
 50
0.0
  0
POINT
 62
7
  8
punkty
 10
0.0
 20
6.6
 30
80.0
  0
TEXT
 62
7
  8
tekst
 10
0.0
 20
8.8
 30
0.0
 40
0.4
  1
8
 50
0.0
  0
TEXT
 62
7
  8
wysokosc
 10
-1.2
 20
8.4
 30
0.0
 40
0.4
  1
46.111
 50
0.0
  0
POINT
 62
7
  8
punkty
 10
0.0
 20
8.8
 30
46.111
  0
TEXT
 62
7
  8
tekst
 10
2.2
 20
8.8
 30
0.0
 40
0.4
  1
9
 50
0.0
  0
TEXT
 62
7
  8
wysokosc
 10
1.0000000000000002
 20
8.4
 30
0.0
 40
0.4
  1
24.0
 50
0.0
  0
POINT
 62
7
  8
punkty
 10
2.2
 20
8.8
 30
24.0
  0
TEXT
 62
7
  8
tekst
 10
2.2
 20
6.6
 30
0.0
 40
0.4
  1
10
 50
0.0
  0
TEXT
 62
7
  8
wysokosc
 10
1.0000000000000002
 20
6.199999999999999
 30
0.0
 40
0.4
  1
56.0
 50
0.0
  0
POINT
 62
7
  8
punkty
 10
2.2
 20
6.6
 30
56.0
  0
TEXT
 62
7
  8
tekst
 10
2.2
 20
4.4
 30
0.0
 40
0.4
  1
11
 50
0.0
  0
TEXT
 62
7
  8
wysokosc
 10
1.0000000000000002
 20
4.0
 30
0.0
 40
0.4
  1
92.0
 50
0.0
  0
POINT
 62
7
  8
punkty
 10
2.2
 20
4.4
 30
92.0
  0
TEXT
 62
7
  8
tekst
 10
2.2
 20
2.2
 30
0.0
 40
0.4
  1
12
 50
0.0
  0
TEXT
 62
7
  8
wysokosc
 10
1.0000000000000002
 20
1.8000000000000003
 30
0.0
 40
0.4
  1
76.0
 50
0.0
  0
POINT
 62
7
  8
punkty
 10
2.2
 20
2.2
 30
76.0
  0
TEXT
 62
7
  8
tekst
 10
2.2
 20
0.0
 30
0.0
 40
0.4
  1
13
 50
0.0
  0
TEXT
 62
7
  8
wysokosc
 10
1.0000000000000002
 20
-0.4
 30
0.0
 40
0.4
  1
7.0
 50
0.0
  0
POINT
 62
7
  8
punkty
 10
2.2
 20
0.0
 30
7.0
  0
TEXT
 62
7
  8
tekst
 10
2.2
 20
-2.2
 30
0.0
 40
0.4
  1
14
 50
0.0
  0
TEXT
 62
7
  8
wysokosc
 10
1.0000000000000002
 20
-2.6
 30
0.0
 40
0.4
  1
91.0
 50
0.0
  0
POINT
 62
7
  8
punkty
 10
2.2
 20
-2.2
 30
91.0
  0
TEXT
 62
7
  8
tekst
 10
2.2
 20
-4.4
 30
0.0
 40
0.4
  1
15
 50
0.0
  0
TEXT
 62
7
  8
wysokosc
 10
1.0000000000000002
 20
-4.800000000000001
 30
0.0
 40
0.4
  1
67.0
 50
0.0
  0
POINT
 62
7
  8
punkty
 10
2.2
 20
-4.4
 30
67.0
  0
TEXT
 62
7
  8
tekst
 10
2.2
 20
-6.6
 30
0.0
 40
0.4
  1
16
 50
0.0
  0
TEXT
 62
7
  8
wysokosc
 10
1.0000000000000002
 20
-7.0
 30
0.0
 40
0.4
  1
34.0
 50
0.0
  0
POINT
 62
7
  8
punkty
 10
2.2
 20
-6.6
 30
34.0
  0
TEXT
 62
7
  8
tekst
 10
2.2
 20
-8.8
 30
0.0
 40
0.4
  1
17
 50
0.0
  0
TEXT
 62
7
  8
wysokosc
 10
1.0000000000000002
 20
-9.200000000000001
 30
0.0
 40
0.4
  1
53.0
 50
0.0
  0
POINT
 62
7
  8
punkty
 10
2.2
 20
-8.8
 30
53.0
  0
TEXT
 62
7
  8
tekst
 10
4.4
 20
-8.8
 30
0.0
 40
0.4
  1
18
 50
0.0
  0
TEXT
 62
7
  8
wysokosc
 10
3.2
 20
-9.200000000000001
 30
0.0
 40
0.4
  1
39.0
 50
0.0
  0
POINT
 62
7
  8
punkty
 10
4.4
 20
-8.8
 30
39.0
  0
TEXT
 62
7
  8
tekst
 10
4.4
 20
-6.6
 30
0.0
 40
0.4
  1
19
 50
0.0
  0
TEXT
 62
7
  8
wysokosc
 10
3.2
 20
-7.0
 30
0.0
 40
0.4
  1
43.0
 50
0.0
  0
POINT
 62
7
  8
punkty
 10
4.4
 20
-6.6
 30
43.0
  0
TEXT
 62
7
  8
tekst
 10
4.4
 20
-4.4
 30
0.0
 40
0.4
  1
20
 50
0.0
  0
TEXT
 62
7
  8
wysokosc
 10
3.2
 20
-4.800000000000001
 30
0.0
 40
0.4
  1
22.0
 50
0.0
  0
POINT
 62
7
  8
punkty
 10
4.4
 20
-4.4
 30
22.0
  0
TEXT
 62
7
  8
tekst
 10
4.4
 20
-2.2
 30
0.0
 40
0.4
  1
21
 50
0.0
  0
TEXT
 62
7
  8
wysokosc
 10
3.2
 20
-2.6
 30
0.0
 40
0.4
  1
93.0
 50
0.0
  0
POINT
 62
7
  8
punkty
 10
4.4
 20
-2.2
 30
93.0
  0
TEXT
 62
7
  8
tekst
 10
4.4
 20
0.0
 30
0.0
 40
0.4
  1
22
 50
0.0
  0
TEXT
 62
7
  8
wysokosc
 10
3.2
 20
-0.4
 30
0.0
 40
0.4
  1
69.0
 50
0.0
  0
POINT
 62
7
  8
punkty
 10
4.4
 20
0.0
 30
69.0
  0
TEXT
 62
7
  8
tekst
 10
4.4
 20
2.2
 30
0.0
 40
0.4
  1
23
 50
0.0
  0
TEXT
 62
7
  8
wysokosc
 10
3.2
 20
1.8000000000000003
 30
0.0
 40
0.4
  1
84.0
 50
0.0
  0
POINT
 62
7
  8
punkty
 10
4.4
 20
2.2
 30
84.0
  0
TEXT
 62
7
  8
tekst
 10
4.4
 20
4.4
 30
0.0
 40
0.4
  1
24
 50
0.0
  0
TEXT
 62
7
  8
wysokosc
 10
3.2
 20
4.0
 30
0.0
 40
0.4
  1
26.0
 50
0.0
  0
POINT
 62
7
  8
punkty
 10
4.4
 20
4.4
 30
26.0
  0
TEXT
 62
7
  8
tekst
 10
4.4
 20
6.6
 30
0.0
 40
0.4
  1
25
 50
0.0
  0
TEXT
 62
7
  8
wysokosc
 10
3.2
 20
6.199999999999999
 30
0.0
 40
0.4
  1
65.0
 50
0.0
  0
POINT
 62
7
  8
punkty
 10
4.4
 20
6.6
 30
65.0
  0
TEXT
 62
7
  8
tekst
 10
4.4
 20
8.8
 30
0.0
 40
0.4
  1
26
 50
0.0
  0
TEXT
 62
7
  8
wysokosc
 10
3.2
 20
8.4
 30
0.0
 40
0.4
  1
88.0
 50
0.0
  0
POINT
 62
7
  8
punkty
 10
4.4
 20
8.8
 30
88.0
  0
TEXT
 62
7
  8
tekst
 10
6.6
 20
8.8
 30
0.0
 40
0.4
  1
27
 50
0.0
  0
TEXT
 62
7
  8
wysokosc
 10
5.3999999999999995
 20
8.4
 30
0.0
 40
0.4
  1
90.0
 50
0.0
  0
POINT
 62
7
  8
punkty
 10
6.6
 20
8.8
 30
90.0
  0
TEXT
 62
7
  8
tekst
 10
6.6
 20
6.6
 30
0.0
 40
0.4
  1
28
 50
0.0
  0
TEXT
 62
7
  8
wysokosc
 10
5.3999999999999995
 20
6.199999999999999
 30
0.0
 40
0.4
  1
47.0
 50
0.0
  0
POINT
 62
7
  8
punkty
 10
6.6
 20
6.6
 30
47.0
  0
TEXT
 62
7
  8
tekst
 10
6.6
 20
4.4
 30
0.0
 40
0.4
  1
29
 50
0.0
  0
TEXT
 62
7
  8
wysokosc
 10
5.3999999999999995
 20
4.0
 30
0.0
 40
0.4
  1
19.0
 50
0.0
  0
POINT
 62
7
  8
punkty
 10
6.6
 20
4.4
 30
19.0
  0
TEXT
 62
7
  8
tekst
 10
6.6
 20
2.2
 30
0.0
 40
0.4
  1
30
 50
0.0
  0
TEXT
 62
7
  8
wysokosc
 10
5.3999999999999995
 20
1.8000000000000003
 30
0.0
 40
0.4
  1
41.0
 50
0.0
  0
POINT
 62
7
  8
punkty
 10
6.6
 20
2.2
 30
41.0
  0
TEXT
 62
7
  8
tekst
 10
6.6
 20
0.0
 30
0.0
 40
0.4
  1
31
 50
0.0
  0
TEXT
 62
7
  8
wysokosc
 10
5.3999999999999995
 20
-0.4
 30
0.0
 40
0.4
  1
30.0
 50
0.0
  0
POINT
 62
7
  8
punkty
 10
6.6
 20
0.0
 30
30.0
  0
TEXT
 62
7
  8
tekst
 10
6.6
 20
-2.2
 30
0.0
 40
0.4
  1
32
 50
0.0
  0
TEXT
 62
7
  8
wysokosc
 10
5.3999999999999995
 20
-2.6
 30
0.0
 40
0.4
  1
34.0
 50
0.0
  0
POINT
 62
7
  8
punkty
 10
6.6
 20
-2.2
 30
34.0
  0
TEXT
 62
7
  8
tekst
 10
6.6
 20
-4.4
 30
0.0
 40
0.4
  1
33
 50
0.0
  0
TEXT
 62
7
  8
wysokosc
 10
5.3999999999999995
 20
-4.800000000000001
 30
0.0
 40
0.4
  1
25.0
 50
0.0
  0
POINT
 62
7
  8
punkty
 10
6.6
 20
-4.4
 30
25.0
  0
TEXT
 62
7
  8
tekst
 10
6.6
 20
-6.6
 30
0.0
 40
0.4
  1
34
 50
0.0
  0
TEXT
 62
7
  8
wysokosc
 10
5.3999999999999995
 20
-7.0
 30
0.0
 40
0.4
  1
40.0
 50
0.0
  0
POINT
 62
7
  8
punkty
 10
6.6
 20
-6.6
 30
40.0
  0
TEXT
 62
7
  8
tekst
 10
6.6
 20
-8.8
 30
0.0
 40
0.4
  1
35
 50
0.0
  0
TEXT
 62
7
  8
wysokosc
 10
5.3999999999999995
 20
-9.200000000000001
 30
0.0
 40
0.4
  1
11.0
 50
0.0
  0
POINT
 62
7
  8
punkty
 10
6.6
 20
-8.8
 30
11.0
  0
TEXT
 62
7
  8
tekst
 10
8.8
 20
-8.8
 30
0.0
 40
0.4
  1
36
 50
0.0
  0
TEXT
 62
7
  8
wysokosc
 10
7.6000000000000005
 20
-9.200000000000001
 30
0.0
 40
0.4
  1
24.0
 50
0.0
  0
POINT
 62
7
  8
punkty
 10
8.8
 20
-8.8
 30
24.0
  0
TEXT
 62
7
  8
tekst
 10
8.8
 20
-6.6
 30
0.0
 40
0.4
  1
37
 50
0.0
  0
TEXT
 62
7
  8
wysokosc
 10
7.6000000000000005
 20
-7.0
 30
0.0
 40
0.4
  1
20.0
 50
0.0
  0
POINT
 62
7
  8
punkty
 10
8.8
 20
-6.6
 30
20.0
  0
TEXT
 62
7
  8
tekst
 10
8.8
 20
-4.4
 30
0.0
 40
0.4
  1
38
 50
0.0
  0
TEXT
 62
7
  8
wysokosc
 10
7.6000000000000005
 20
-4.800000000000001
 30
0.0
 40
0.4
  1
60.0
 50
0.0
  0
POINT
 62
7
  8
punkty
 10
8.8
 20
-4.4
 30
60.0
  0
TEXT
 62
7
  8
tekst
 10
8.8
 20
-2.2
 30
0.0
 40
0.4
  1
39
 50
0.0
  0
TEXT
 62
7
  8
wysokosc
 10
7.6000000000000005
 20
-2.6
 30
0.0
 40
0.4
  1
49.0
 50
0.0
  0
POINT
 62
7
  8
punkty
 10
8.8
 20
-2.2
 30
49.0
  0
TEXT
 62
7
  8
tekst
 10
8.8
 20
0.0
 30
0.0
 40
0.4
  1
40
 50
0.0
  0
TEXT
 62
7
  8
wysokosc
 10
7.6000000000000005
 20
-0.4
 30
0.0
 40
0.4
  1
54.0
 50
0.0
  0
POINT
 62
7
  8
punkty
 10
8.8
 20
0.0
 30
54.0
  0
TEXT
 62
7
  8
tekst
 10
8.8
 20
2.2
 30
0.0
 40
0.4
  1
41
 50
0.0
  0
TEXT
 62
7
  8
wysokosc
 10
7.6000000000000005
 20
1.8000000000000003
 30
0.0
 40
0.4
  1
35.0
 50
0.0
  0
POINT
 62
7
  8
punkty
 10
8.8
 20
2.2
 30
35.0
  0
TEXT
 62
7
  8
tekst
 10
8.8
 20
4.4
 30
0.0
 40
0.4
  1
42
 50
0.0
  0
TEXT
 62
7
  8
wysokosc
 10
7.6000000000000005
 20
4.0
 30
0.0
 40
0.4
  1
25.0
 50
0.0
  0
POINT
 62
7
  8
punkty
 10
8.8
 20
4.4
 30
25.0
  0
TEXT
 62
7
  8
tekst
 10
8.8
 20
6.6
 30
0.0
 40
0.4
  1
43
 50
0.0
  0
TEXT
 62
7
  8
wysokosc
 10
7.6000000000000005
 20
6.199999999999999
 30
0.0
 40
0.4
  1
36.0
 50
0.0
  0
POINT
 62
7
  8
punkty
 10
8.8
 20
6.6
 30
36.0
  0
TEXT
 62
7
  8
tekst
 10
8.8
 20
8.8
 30
0.0
 40
0.4
  1
44
 50
0.0
  0
TEXT
 62
7
  8
wysokosc
 10
7.6000000000000005
 20
8.4
 30
0.0
 40
0.4
  1
26.0
 50
0.0
  0
POINT
 62
7
  8
punkty
 10
8.8
 20
8.8
 30
26.0
  0
TEXT
 62
7
  8
tekst
 10
11.0
 20
8.8
 30
0.0
 40
0.4
  1
45
 50
0.0
  0
TEXT
 62
7
  8
wysokosc
 10
9.8
 20
8.4
 30
0.0
 40
0.4
  1
25.0
 50
0.0
  0
POINT
 62
7
  8
punkty
 10
11.0
 20
8.8
 30
25.0
  0
TEXT
 62
7
  8
tekst
 10
11.0
 20
6.6
 30
0.0
 40
0.4
  1
46
 50
0.0
  0
TEXT
 62
7
  8
wysokosc
 10
9.8
 20
6.199999999999999
 30
0.0
 40
0.4
  1
27.0
 50
0.0
  0
POINT
 62
7
  8
punkty
 10
11.0
 20
6.6
 30
27.0
  0
TEXT
 62
7
  8
tekst
 10
11.0
 20
4.4
 30
0.0
 40
0.4
  1
47
 50
0.0
  0
TEXT
 62
7
  8
wysokosc
 10
9.8
 20
4.0
 30
0.0
 40
0.4
  1
34.0
 50
0.0
  0
POINT
 62
7
  8
punkty
 10
11.0
 20
4.4
 30
34.0
  0
TEXT
 62
7
  8
tekst
 10
11.0
 20
2.2
 30
0.0
 40
0.4
  1
48
 50
0.0
  0
TEXT
 62
7
  8
wysokosc
 10
9.8
 20
1.8000000000000003
 30
0.0
 40
0.4
  1
58.0
 50
0.0
  0
POINT
 62
7
  8
punkty
 10
11.0
 20
2.2
 30
58.0
  0
TEXT
 62
7
  8
tekst
 10
11.0
 20
0.0
 30
0.0
 40
0.4
  1
49
 50
0.0
  0
TEXT
 62
7
  8
wysokosc
 10
9.8
 20
-0.4
 30
0.0
 40
0.4
  1
56.0
 50
0.0
  0
POINT
 62
7
  8
punkty
 10
11.0
 20
0.0
 30
56.0
  0
TEXT
 62
7
  8
tekst
 10
11.0
 20
-2.2
 30
0.0
 40
0.4
  1
50
 50
0.0
  0
TEXT
 62
7
  8
wysokosc
 10
9.8
 20
-2.6
 30
0.0
 40
0.4
  1
84.0
 50
0.0
  0
POINT
 62
7
  8
punkty
 10
11.0
 20
-2.2
 30
84.0
  0
TEXT
 62
7
  8
tekst
 10
11.0
 20
-4.4
 30
0.0
 40
0.4
  1
51
 50
0.0
  0
TEXT
 62
7
  8
wysokosc
 10
9.8
 20
-4.800000000000001
 30
0.0
 40
0.4
  1
63.0
 50
0.0
  0
POINT
 62
7
  8
punkty
 10
11.0
 20
-4.4
 30
63.0
  0
TEXT
 62
7
  8
tekst
 10
11.0
 20
-6.6
 30
0.0
 40
0.4
  1
52
 50
0.0
  0
TEXT
 62
7
  8
wysokosc
 10
9.8
 20
-7.0
 30
0.0
 40
0.4
  1
27.0
 50
0.0
  0
POINT
 62
7
  8
punkty
 10
11.0
 20
-6.6
 30
27.0
  0
TEXT
 62
7
  8
tekst
 10
13.2
 20
-6.6
 30
0.0
 40
0.4
  1
53
 50
0.0
  0
TEXT
 62
7
  8
wysokosc
 10
12.0
 20
-7.0
 30
0.0
 40
0.4
  1
45.0
 50
0.0
  0
POINT
 62
7
  8
punkty
 10
13.2
 20
-6.6
 30
45.0
  0
TEXT
 62
7
  8
tekst
 10
13.2
 20
-4.4
 30
0.0
 40
0.4
  1
54
 50
0.0
  0
TEXT
 62
7
  8
wysokosc
 10
12.0
 20
-4.800000000000001
 30
0.0
 40
0.4
  1
57.0
 50
0.0
  0
POINT
 62
7
  8
punkty
 10
13.2
 20
-4.4
 30
57.0
  0
TEXT
 62
7
  8
tekst
 10
13.2
 20
-2.2
 30
0.0
 40
0.4
  1
55
 50
0.0
  0
TEXT
 62
7
  8
wysokosc
 10
12.0
 20
-2.6
 30
0.0
 40
0.4
  1
71.0
 50
0.0
  0
POINT
 62
7
  8
punkty
 10
13.2
 20
-2.2
 30
71.0
  0
TEXT
 62
7
  8
tekst
 10
13.2
 20
0.0
 30
0.0
 40
0.4
  1
56
 50
0.0
  0
TEXT
 62
7
  8
wysokosc
 10
12.0
 20
-0.4
 30
0.0
 40
0.4
  1
37.0
 50
0.0
  0
POINT
 62
7
  8
punkty
 10
13.2
 20
0.0
 30
37.0
  0
TEXT
 62
7
  8
tekst
 10
13.2
 20
2.2
 30
0.0
 40
0.4
  1
57
 50
0.0
  0
TEXT
 62
7
  8
wysokosc
 10
12.0
 20
1.8000000000000003
 30
0.0
 40
0.4
  1
66.0
 50
0.0
  0
POINT
 62
7
  8
punkty
 10
13.2
 20
2.2
 30
66.0
  0
TEXT
 62
7
  8
tekst
 10
13.2
 20
4.4
 30
0.0
 40
0.4
  1
58
 50
0.0
  0
TEXT
 62
7
  8
wysokosc
 10
12.0
 20
4.0
 30
0.0
 40
0.4
  1
13.0
 50
0.0
  0
POINT
 62
7
  8
punkty
 10
13.2
 20
4.4
 30
13.0
  0
TEXT
 62
7
  8
tekst
 10
13.2
 20
6.6
 30
0.0
 40
0.4
  1
59
 50
0.0
  0
TEXT
 62
7
  8
wysokosc
 10
12.0
 20
6.199999999999999
 30
0.0
 40
0.4
  1
19.0
 50
0.0
  0
POINT
 62
7
  8
punkty
 10
13.2
 20
6.6
 30
19.0
  0
TEXT
 62
7
  8
tekst
 10
13.2
 20
8.8
 30
0.0
 40
0.4
  1
60
 50
0.0
  0
TEXT
 62
7
  8
wysokosc
 10
12.0
 20
8.4
 30
0.0
 40
0.4
  1
32.0
 50
0.0
  0
POINT
 62
7
  8
punkty
 10
13.2
 20
8.8
 30
32.0
  0
TEXT
 62
7
  8
tekst
 10
15.4
 20
8.8
 30
0.0
 40
0.4
  1
61
 50
0.0
  0
TEXT
 62
7
  8
wysokosc
 10
14.200000000000001
 20
8.4
 30
0.0
 40
0.4
  1
43.0
 50
0.0
  0
POINT
 62
7
  8
punkty
 10
15.4
 20
8.8
 30
43.0
  0
TEXT
 62
7
  8
tekst
 10
15.4
 20
6.6
 30
0.0
 40
0.4
  1
62
 50
0.0
  0
TEXT
 62
7
  8
wysokosc
 10
14.200000000000001
 20
6.199999999999999
 30
0.0
 40
0.4
  1
1.0
 50
0.0
  0
POINT
 62
7
  8
punkty
 10
15.4
 20
6.6
 30
1.0
  0
TEXT
 62
7
  8
tekst
 10
15.4
 20
4.4
 30
0.0
 40
0.4
  1
63
 50
0.0
  0
TEXT
 62
7
  8
wysokosc
 10
14.200000000000001
 20
4.0
 30
0.0
 40
0.4
  1
87.0
 50
0.0
  0
POINT
 62
7
  8
punkty
 10
15.4
 20
4.4
 30
87.0
  0
TEXT
 62
7
  8
tekst
 10
15.4
 20
2.2
 30
0.0
 40
0.4
  1
64
 50
0.0
  0
TEXT
 62
7
  8
wysokosc
 10
14.200000000000001
 20
1.8000000000000003
 30
0.0
 40
0.4
  1
74.0
 50
0.0
  0
POINT
 62
7
  8
punkty
 10
15.4
 20
2.2
 30
74.0
  0
TEXT
 62
7
  8
tekst
 10
15.4
 20
0.0
 30
0.0
 40
0.4
  1
65
 50
0.0
  0
TEXT
 62
7
  8
wysokosc
 10
14.200000000000001
 20
-0.4
 30
0.0
 40
0.4
  1
59.0
 50
0.0
  0
POINT
 62
7
  8
punkty
 10
15.4
 20
0.0
 30
59.0
  0
TEXT
 62
7
  8
tekst
 10
15.4
 20
-2.2
 30
0.0
 40
0.4
  1
66
 50
0.0
  0
TEXT
 62
7
  8
wysokosc
 10
14.200000000000001
 20
-2.6
 30
0.0
 40
0.4
  1
69.0
 50
0.0
  0
POINT
 62
7
  8
punkty
 10
15.4
 20
-2.2
 30
69.0
  0
TEXT
 62
7
  8
tekst
 10
15.4
 20
-4.4
 30
0.0
 40
0.4
  1
67
 50
0.0
  0
TEXT
 62
7
  8
wysokosc
 10
14.200000000000001
 20
-4.800000000000001
 30
0.0
 40
0.4
  1
91.0
 50
0.0
  0
POINT
 62
7
  8
punkty
 10
15.4
 20
-4.4
 30
91.0
  0
TEXT
 62
7
  8
tekst
 10
17.6
 20
-2.2
 30
0.0
 40
0.4
  1
68
 50
0.0
  0
TEXT
 62
7
  8
wysokosc
 10
16.400000000000002
 20
-2.6
 30
0.0
 40
0.4
  1
57.0
 50
0.0
  0
POINT
 62
7
  8
punkty
 10
17.6
 20
-2.2
 30
57.0
  0
TEXT
 62
7
  8
tekst
 10
17.6
 20
0.0
 30
0.0
 40
0.4
  1
69
 50
0.0
  0
TEXT
 62
7
  8
wysokosc
 10
16.400000000000002
 20
-0.4
 30
0.0
 40
0.4
  1
67.0
 50
0.0
  0
POINT
 62
7
  8
punkty
 10
17.6
 20
0.0
 30
67.0
  0
TEXT
 62
7
  8
tekst
 10
17.6
 20
2.2
 30
0.0
 40
0.4
  1
70
 50
0.0
  0
TEXT
 62
7
  8
wysokosc
 10
16.400000000000002
 20
1.8000000000000003
 30
0.0
 40
0.4
  1
15.0
 50
0.0
  0
POINT
 62
7
  8
punkty
 10
17.6
 20
2.2
 30
15.0
  0
TEXT
 62
7
  8
tekst
 10
-2.2
 20
-8.8
 30
0.0
 40
0.4
  1
71
 50
0.0
  0
TEXT
 62
7
  8
wysokosc
 10
-3.4000000000000004
 20
-9.200000000000001
 30
0.0
 40
0.4
  1
84.0
 50
0.0
  0
POINT
 62
7
  8
punkty
 10
-2.2
 20
-8.8
 30
84.0
  0
TEXT
 62
7
  8
tekst
 10
-2.2
 20
-6.6
 30
0.0
 40
0.4
  1
72
 50
0.0
  0
TEXT
 62
7
  8
wysokosc
 10
-3.4000000000000004
 20
-7.0
 30
0.0
 40
0.4
  1
89.0
 50
0.0
  0
POINT
 62
7
  8
punkty
 10
-2.2
 20
-6.6
 30
89.0
  0
TEXT
 62
7
  8
tekst
 10
-2.2
 20
-4.4
 30
0.0
 40
0.4
  1
73
 50
0.0
  0
TEXT
 62
7
  8
wysokosc
 10
-3.4000000000000004
 20
-4.800000000000001
 30
0.0
 40
0.4
  1
25.0
 50
0.0
  0
POINT
 62
7
  8
punkty
 10
-2.2
 20
-4.4
 30
25.0
  0
TEXT
 62
7
  8
tekst
 10
-2.2
 20
-2.2
 30
0.0
 40
0.4
  1
74
 50
0.0
  0
TEXT
 62
7
  8
wysokosc
 10
-3.4000000000000004
 20
-2.6
 30
0.0
 40
0.4
  1
20.0
 50
0.0
  0
POINT
 62
7
  8
punkty
 10
-2.2
 20
-2.2
 30
20.0
  0
TEXT
 62
7
  8
tekst
 10
-2.2
 20
0.0
 30
0.0
 40
0.4
  1
75
 50
0.0
  0
TEXT
 62
7
  8
wysokosc
 10
-3.4000000000000004
 20
-0.4
 30
0.0
 40
0.4
  1
61.0
 50
0.0
  0
POINT
 62
7
  8
punkty
 10
-2.2
 20
0.0
 30
61.0
  0
TEXT
 62
7
  8
tekst
 10
-2.2
 20
2.2
 30
0.0
 40
0.4
  1
76
 50
0.0
  0
TEXT
 62
7
  8
wysokosc
 10
-3.4000000000000004
 20
1.8000000000000003
 30
0.0
 40
0.4
  1
84.0
 50
0.0
  0
POINT
 62
7
  8
punkty
 10
-2.2
 20
2.2
 30
84.0
  0
TEXT
 62
7
  8
tekst
 10
-2.2
 20
4.4
 30
0.0
 40
0.4
  1
77
 50
0.0
  0
TEXT
 62
7
  8
wysokosc
 10
-3.4000000000000004
 20
4.0
 30
0.0
 40
0.4
  1
16.0
 50
0.0
  0
POINT
 62
7
  8
punkty
 10
-2.2
 20
4.4
 30
16.0
  0
TEXT
 62
7
  8
tekst
 10
-2.2
 20
6.6
 30
0.0
 40
0.4
  1
78
 50
0.0
  0
TEXT
 62
7
  8
wysokosc
 10
-3.4000000000000004
 20
6.199999999999999
 30
0.0
 40
0.4
  1
18.0
 50
0.0
  0
POINT
 62
7
  8
punkty
 10
-2.2
 20
6.6
 30
18.0
  0
TEXT
 62
7
  8
tekst
 10
-2.2
 20
8.8
 30
0.0
 40
0.4
  1
79
 50
0.0
  0
TEXT
 62
7
  8
wysokosc
 10
-3.4000000000000004
 20
8.4
 30
0.0
 40
0.4
  1
50.0
 50
0.0
  0
POINT
 62
7
  8
punkty
 10
-2.2
 20
8.8
 30
50.0
  0
TEXT
 62
7
  8
tekst
 10
-4.4
 20
8.8
 30
0.0
 40
0.4
  1
80
 50
0.0
  0
TEXT
 62
7
  8
wysokosc
 10
-5.6000000000000005
 20
8.4
 30
0.0
 40
0.4
  1
88.0
 50
0.0
  0
POINT
 62
7
  8
punkty
 10
-4.4
 20
8.8
 30
88.0
  0
TEXT
 62
7
  8
tekst
 10
-4.4
 20
6.6
 30
0.0
 40
0.4
  1
81
 50
0.0
  0
TEXT
 62
7
  8
wysokosc
 10
-5.6000000000000005
 20
6.199999999999999
 30
0.0
 40
0.4
  1
16.0
 50
0.0
  0
POINT
 62
7
  8
punkty
 10
-4.4
 20
6.6
 30
16.0
  0
TEXT
 62
7
  8
tekst
 10
-4.4
 20
4.4
 30
0.0
 40
0.4
  1
82
 50
0.0
  0
TEXT
 62
7
  8
wysokosc
 10
-5.6000000000000005
 20
4.0
 30
0.0
 40
0.4
  1
96.0
 50
0.0
  0
POINT
 62
7
  8
punkty
 10
-4.4
 20
4.4
 30
96.0
  0
TEXT
 62
7
  8
tekst
 10
-4.4
 20
2.2
 30
0.0
 40
0.4
  1
83
 50
0.0
  0
TEXT
 62
7
  8
wysokosc
 10
-5.6000000000000005
 20
1.8000000000000003
 30
0.0
 40
0.4
  1
79.0
 50
0.0
  0
POINT
 62
7
  8
punkty
 10
-4.4
 20
2.2
 30
79.0
  0
TEXT
 62
7
  8
tekst
 10
-4.4
 20
0.0
 30
0.0
 40
0.4
  1
84
 50
0.0
  0
TEXT
 62
7
  8
wysokosc
 10
-5.6000000000000005
 20
-0.4
 30
0.0
 40
0.4
  1
25.0
 50
0.0
  0
POINT
 62
7
  8
punkty
 10
-4.4
 20
0.0
 30
25.0
  0
TEXT
 62
7
  8
tekst
 10
-4.4
 20
-2.2
 30
0.0
 40
0.4
  1
85
 50
0.0
  0
TEXT
 62
7
  8
wysokosc
 10
-5.6000000000000005
 20
-2.6
 30
0.0
 40
0.4
  1
17.0
 50
0.0
  0
POINT
 62
7
  8
punkty
 10
-4.4
 20
-2.2
 30
17.0
  0
TEXT
 62
7
  8
tekst
 10
-4.4
 20
-4.4
 30
0.0
 40
0.4
  1
86
 50
0.0
  0
TEXT
 62
7
  8
wysokosc
 10
-5.6000000000000005
 20
-4.800000000000001
 30
0.0
 40
0.4
  1
58.0
 50
0.0
  0
POINT
 62
7
  8
punkty
 10
-4.4
 20
-4.4
 30
58.0
  0
TEXT
 62
7
  8
tekst
 10
-4.4
 20
-6.6
 30
0.0
 40
0.4
  1
87
 50
0.0
  0
TEXT
 62
7
  8
wysokosc
 10
-5.6000000000000005
 20
-7.0
 30
0.0
 40
0.4
  1
27.0
 50
0.0
  0
POINT
 62
7
  8
punkty
 10
-4.4
 20
-6.6
 30
27.0
  0
TEXT
 62
7
  8
tekst
 10
-4.4
 20
-8.8
 30
0.0
 40
0.4
  1
88
 50
0.0
  0
TEXT
 62
7
  8
wysokosc
 10
-5.6000000000000005
 20
-9.200000000000001
 30
0.0
 40
0.4
  1
36.0
 50
0.0
  0
POINT
 62
7
  8
punkty
 10
-4.4
 20
-8.8
 30
36.0
  0
TEXT
 62
7
  8
tekst
 10
-6.6
 20
-8.8
 30
0.0
 40
0.4
  1
89
 50
0.0
  0
TEXT
 62
7
  8
wysokosc
 10
-7.8
 20
-9.200000000000001
 30
0.0
 40
0.4
  1
13.0
 50
0.0
  0
POINT
 62
7
  8
punkty
 10
-6.6
 20
-8.8
 30
13.0
  0
TEXT
 62
7
  8
tekst
 10
-6.6
 20
-6.6
 30
0.0
 40
0.4
  1
90
 50
0.0
  0
TEXT
 62
7
  8
wysokosc
 10
-7.8
 20
-7.0
 30
0.0
 40
0.4
  1
63.0
 50
0.0
  0
POINT
 62
7
  8
punkty
 10
-6.6
 20
-6.6
 30
63.0
  0
TEXT
 62
7
  8
tekst
 10
-6.6
 20
-4.4
 30
0.0
 40
0.4
  1
91
 50
0.0
  0
TEXT
 62
7
  8
wysokosc
 10
-7.8
 20
-4.800000000000001
 30
0.0
 40
0.4
  1
87.0
 50
0.0
  0
POINT
 62
7
  8
punkty
 10
-6.6
 20
-4.4
 30
87.0
  0
TEXT
 62
7
  8
tekst
 10
-6.6
 20
-2.2
 30
0.0
 40
0.4
  1
92
 50
0.0
  0
TEXT
 62
7
  8
wysokosc
 10
-7.8
 20
-2.6
 30
0.0
 40
0.4
  1
75.0
 50
0.0
  0
POINT
 62
7
  8
punkty
 10
-6.6
 20
-2.2
 30
75.0
  0
TEXT
 62
7
  8
tekst
 10
-6.6
 20
0.0
 30
0.0
 40
0.4
  1
93
 50
0.0
  0
TEXT
 62
7
  8
wysokosc
 10
-7.8
 20
-0.4
 30
0.0
 40
0.4
  1
83.0
 50
0.0
  0
POINT
 62
7
  8
punkty
 10
-6.6
 20
0.0
 30
83.0
  0
TEXT
 62
7
  8
tekst
 10
-6.6
 20
2.2
 30
0.0
 40
0.4
  1
94
 50
0.0
  0
TEXT
 62
7
  8
wysokosc
 10
-7.8
 20
1.8000000000000003
 30
0.0
 40
0.4
  1
60.0
 50
0.0
  0
POINT
 62
7
  8
punkty
 10
-6.6
 20
2.2
 30
60.0
  0
TEXT
 62
7
  8
tekst
 10
-6.6
 20
4.4
 30
0.0
 40
0.4
  1
95
 50
0.0
  0
TEXT
 62
7
  8
wysokosc
 10
-7.8
 20
4.0
 30
0.0
 40
0.4
  1
86.0
 50
0.0
  0
POINT
 62
7
  8
punkty
 10
-6.6
 20
4.4
 30
86.0
  0
TEXT
 62
7
  8
tekst
 10
-6.6
 20
6.6
 30
0.0
 40
0.4
  1
96
 50
0.0
  0
TEXT
 62
7
  8
wysokosc
 10
-7.8
 20
6.199999999999999
 30
0.0
 40
0.4
  1
52.0
 50
0.0
  0
POINT
 62
7
  8
punkty
 10
-6.6
 20
6.6
 30
52.0
  0
TEXT
 62
7
  8
tekst
 10
-6.6
 20
8.8
 30
0.0
 40
0.4
  1
97
 50
0.0
  0
TEXT
 62
7
  8
wysokosc
 10
-7.8
 20
8.4
 30
0.0
 40
0.4
  1
62.0
 50
0.0
  0
POINT
 62
7
  8
punkty
 10
-6.6
 20
8.8
 30
62.0
  0
TEXT
 62
7
  8
tekst
 10
-8.8
 20
8.8
 30
0.0
 40
0.4
  1
98
 50
0.0
  0
TEXT
 62
7
  8
wysokosc
 10
-10.0
 20
8.4
 30
0.0
 40
0.4
  1
52.0
 50
0.0
  0
POINT
 62
7
  8
punkty
 10
-8.8
 20
8.8
 30
52.0
  0
TEXT
 62
7
  8
tekst
 10
-8.8
 20
6.6
 30
0.0
 40
0.4
  1
99
 50
0.0
  0
TEXT
 62
7
  8
wysokosc
 10
-10.0
 20
6.199999999999999
 30
0.0
 40
0.4
  1
38.0
 50
0.0
  0
POINT
 62
7
  8
punkty
 10
-8.8
 20
6.6
 30
38.0
  0
TEXT
 62
7
  8
tekst
 10
-8.8
 20
4.4
 30
0.0
 40
0.4
  1
100
 50
0.0
  0
TEXT
 62
7
  8
wysokosc
 10
-10.0
 20
4.0
 30
0.0
 40
0.4
  1
87.0
 50
0.0
  0
POINT
 62
7
  8
punkty
 10
-8.8
 20
4.4
 30
87.0
  0
TEXT
 62
7
  8
tekst
 10
-8.8
 20
2.2
 30
0.0
 40
0.4
  1
101
 50
0.0
  0
TEXT
 62
7
  8
wysokosc
 10
-10.0
 20
1.8000000000000003
 30
0.0
 40
0.4
  1
60.0
 50
0.0
  0
POINT
 62
7
  8
punkty
 10
-8.8
 20
2.2
 30
60.0
  0
TEXT
 62
7
  8
tekst
 10
-8.8
 20
0.0
 30
0.0
 40
0.4
  1
102
 50
0.0
  0
TEXT
 62
7
  8
wysokosc
 10
-10.0
 20
-0.4
 30
0.0
 40
0.4
  1
35.0
 50
0.0
  0
POINT
 62
7
  8
punkty
 10
-8.8
 20
0.0
 30
35.0
  0
TEXT
 62
7
  8
tekst
 10
-8.8
 20
-2.2
 30
0.0
 40
0.4
  1
103
 50
0.0
  0
TEXT
 62
7
  8
wysokosc
 10
-10.0
 20
-2.6
 30
0.0
 40
0.4
  1
19.0
 50
0.0
  0
POINT
 62
7
  8
punkty
 10
-8.8
 20
-2.2
 30
19.0
  0
TEXT
 62
7
  8
tekst
 10
-8.8
 20
-4.4
 30
0.0
 40
0.4
  1
104
 50
0.0
  0
TEXT
 62
7
  8
wysokosc
 10
-10.0
 20
-4.800000000000001
 30
0.0
 40
0.4
  1
18.0
 50
0.0
  0
POINT
 62
7
  8
punkty
 10
-8.8
 20
-4.4
 30
18.0
  0
TEXT
 62
7
  8
tekst
 10
-8.8
 20
-6.6
 30
0.0
 40
0.4
  1
105
 50
0.0
  0
TEXT
 62
7
  8
wysokosc
 10
-10.0
 20
-7.0
 30
0.0
 40
0.4
  1
34.0
 50
0.0
  0
POINT
 62
7
  8
punkty
 10
-8.8
 20
-6.6
 30
34.0
  0
TEXT
 62
7
  8
tekst
 10
-8.8
 20
-8.8
 30
0.0
 40
0.4
  1
106
 50
0.0
  0
TEXT
 62
7
  8
wysokosc
 10
-10.0
 20
-9.200000000000001
 30
0.0
 40
0.4
  1
32.0
 50
0.0
  0
POINT
 62
7
  8
punkty
 10
-8.8
 20
-8.8
 30
32.0
  0
TEXT
 62
7
  8
tekst
 10
-11.0
 20
-6.6
 30
0.0
 40
0.4
  1
107
 50
0.0
  0
TEXT
 62
7
  8
wysokosc
 10
-12.2
 20
-7.0
 30
0.0
 40
0.4
  1
87.0
 50
0.0
  0
POINT
 62
7
  8
punkty
 10
-11.0
 20
-6.6
 30
87.0
  0
TEXT
 62
7
  8
tekst
 10
-11.0
 20
-4.4
 30
0.0
 40
0.4
  1
108
 50
0.0
  0
TEXT
 62
7
  8
wysokosc
 10
-12.2
 20
-4.800000000000001
 30
0.0
 40
0.4
  1
100.0
 50
0.0
  0
POINT
 62
7
  8
punkty
 10
-11.0
 20
-4.4
 30
100.0
  0
TEXT
 62
7
  8
tekst
 10
-11.0
 20
-2.2
 30
0.0
 40
0.4
  1
109
 50
0.0
  0
TEXT
 62
7
  8
wysokosc
 10
-12.2
 20
-2.6
 30
0.0
 40
0.4
  1
65.0
 50
0.0
  0
POINT
 62
7
  8
punkty
 10
-11.0
 20
-2.2
 30
65.0
  0
TEXT
 62
7
  8
tekst
 10
-11.0
 20
0.0
 30
0.0
 40
0.4
  1
110
 50
0.0
  0
TEXT
 62
7
  8
wysokosc
 10
-12.2
 20
-0.4
 30
0.0
 40
0.4
  1
40.0
 50
0.0
  0
POINT
 62
7
  8
punkty
 10
-11.0
 20
0.0
 30
40.0
  0
TEXT
 62
7
  8
tekst
 10
-11.0
 20
2.2
 30
0.0
 40
0.4
  1
111
 50
0.0
  0
TEXT
 62
7
  8
wysokosc
 10
-12.2
 20
1.8000000000000003
 30
0.0
 40
0.4
  1
42.0
 50
0.0
  0
POINT
 62
7
  8
punkty
 10
-11.0
 20
2.2
 30
42.0
  0
TEXT
 62
7
  8
tekst
 10
-11.0
 20
4.4
 30
0.0
 40
0.4
  1
112
 50
0.0
  0
TEXT
 62
7
  8
wysokosc
 10
-12.2
 20
4.0
 30
0.0
 40
0.4
  1
21.0
 50
0.0
  0
POINT
 62
7
  8
punkty
 10
-11.0
 20
4.4
 30
21.0
  0
TEXT
 62
7
  8
tekst
 10
-11.0
 20
6.6
 30
0.0
 40
0.4
  1
113
 50
0.0
  0
TEXT
 62
7
  8
wysokosc
 10
-12.2
 20
6.199999999999999
 30
0.0
 40
0.4
  1
21.0
 50
0.0
  0
POINT
 62
7
  8
punkty
 10
-11.0
 20
6.6
 30
21.0
  0
TEXT
 62
7
  8
tekst
 10
-11.0
 20
8.8
 30
0.0
 40
0.4
  1
114
 50
0.0
  0
TEXT
 62
7
  8
wysokosc
 10
-12.2
 20
8.4
 30
0.0
 40
0.4
  1
18.0
 50
0.0
  0
POINT
 62
7
  8
punkty
 10
-11.0
 20
8.8
 30
18.0
  0
TEXT
 62
7
  8
tekst
 10
-13.2
 20
8.8
 30
0.0
 40
0.4
  1
115
 50
0.0
  0
TEXT
 62
7
  8
wysokosc
 10
-14.399999999999999
 20
8.4
 30
0.0
 40
0.4
  1
54.0
 50
0.0
  0
POINT
 62
7
  8
punkty
 10
-13.2
 20
8.8
 30
54.0
  0
TEXT
 62
7
  8
tekst
 10
-13.2
 20
6.6
 30
0.0
 40
0.4
  1
116
 50
0.0
  0
TEXT
 62
7
  8
wysokosc
 10
-14.399999999999999
 20
6.199999999999999
 30
0.0
 40
0.4
  1
65.0
 50
0.0
  0
POINT
 62
7
  8
punkty
 10
-13.2
 20
6.6
 30
65.0
  0
TEXT
 62
7
  8
tekst
 10
-13.2
 20
4.4
 30
0.0
 40
0.4
  1
117
 50
0.0
  0
TEXT
 62
7
  8
wysokosc
 10
-14.399999999999999
 20
4.0
 30
0.0
 40
0.4
  1
60.0
 50
0.0
  0
POINT
 62
7
  8
punkty
 10
-13.2
 20
4.4
 30
60.0
  0
TEXT
 62
7
  8
tekst
 10
-13.2
 20
2.2
 30
0.0
 40
0.4
  1
118
 50
0.0
  0
TEXT
 62
7
  8
wysokosc
 10
-14.399999999999999
 20
1.8000000000000003
 30
0.0
 40
0.4
  1
66.0
 50
0.0
  0
POINT
 62
7
  8
punkty
 10
-13.2
 20
2.2
 30
66.0
  0
TEXT
 62
7
  8
tekst
 10
-13.2
 20
0.0
 30
0.0
 40
0.4
  1
119
 50
0.0
  0
TEXT
 62
7
  8
wysokosc
 10
-14.399999999999999
 20
-0.4
 30
0.0
 40
0.4
  1
7.0
 50
0.0
  0
POINT
 62
7
  8
punkty
 10
-13.2
 20
0.0
 30
7.0
  0
TEXT
 62
7
  8
tekst
 10
-13.2
 20
-2.2
 30
0.0
 40
0.4
  1
120
 50
0.0
  0
TEXT
 62
7
  8
wysokosc
 10
-14.399999999999999
 20
-2.6
 30
0.0
 40
0.4
  1
60.0
 50
0.0
  0
POINT
 62
7
  8
punkty
 10
-13.2
 20
-2.2
 30
60.0
  0
TEXT
 62
7
  8
tekst
 10
-13.2
 20
-4.4
 30
0.0
 40
0.4
  1
121
 50
0.0
  0
TEXT
 62
7
  8
wysokosc
 10
-14.399999999999999
 20
-4.800000000000001
 30
0.0
 40
0.4
  1
53.0
 50
0.0
  0
POINT
 62
7
  8
punkty
 10
-13.2
 20
-4.4
 30
53.0
  0
TEXT
 62
7
  8
tekst
 10
-13.2
 20
-6.6
 30
0.0
 40
0.4
  1
122
 50
0.0
  0
TEXT
 62
7
  8
wysokosc
 10
-14.399999999999999
 20
-7.0
 30
0.0
 40
0.4
  1
77.0
 50
0.0
  0
POINT
 62
7
  8
punkty
 10
-13.2
 20
-6.6
 30
77.0
  0
TEXT
 62
7
  8
tekst
 10
-15.4
 20
-4.4
 30
0.0
 40
0.4
  1
123
 50
0.0
  0
TEXT
 62
7
  8
wysokosc
 10
-16.6
 20
-4.800000000000001
 30
0.0
 40
0.4
  1
76.0
 50
0.0
  0
POINT
 62
7
  8
punkty
 10
-15.4
 20
-4.4
 30
76.0
  0
TEXT
 62
7
  8
tekst
 10
-15.4
 20
-2.2
 30
0.0
 40
0.4
  1
124
 50
0.0
  0
TEXT
 62
7
  8
wysokosc
 10
-16.6
 20
-2.6
 30
0.0
 40
0.4
  1
76.0
 50
0.0
  0
POINT
 62
7
  8
punkty
 10
-15.4
 20
-2.2
 30
76.0
  0
TEXT
 62
7
  8
tekst
 10
-15.4
 20
0.0
 30
0.0
 40
0.4
  1
125
 50
0.0
  0
TEXT
 62
7
  8
wysokosc
 10
-16.6
 20
-0.4
 30
0.0
 40
0.4
  1
15.0
 50
0.0
  0
POINT
 62
7
  8
punkty
 10
-15.4
 20
0.0
 30
15.0
  0
TEXT
 62
7
  8
tekst
 10
-15.4
 20
2.2
 30
0.0
 40
0.4
  1
126
 50
0.0
  0
TEXT
 62
7
  8
wysokosc
 10
-16.6
 20
1.8000000000000003
 30
0.0
 40
0.4
  1
83.0
 50
0.0
  0
POINT
 62
7
  8
punkty
 10
-15.4
 20
2.2
 30
83.0
  0
TEXT
 62
7
  8
tekst
 10
-15.4
 20
4.4
 30
0.0
 40
0.4
  1
127
 50
0.0
  0
TEXT
 62
7
  8
wysokosc
 10
-16.6
 20
4.0
 30
0.0
 40
0.4
  1
47.0
 50
0.0
  0
POINT
 62
7
  8
punkty
 10
-15.4
 20
4.4
 30
47.0
  0
TEXT
 62
7
  8
tekst
 10
-15.4
 20
6.6
 30
0.0
 40
0.4
  1
128
 50
0.0
  0
TEXT
 62
7
  8
wysokosc
 10
-16.6
 20
6.199999999999999
 30
0.0
 40
0.4
  1
99.0
 50
0.0
  0
POINT
 62
7
  8
punkty
 10
-15.4
 20
6.6
 30
99.0
  0
TEXT
 62
7
  8
tekst
 10
-15.4
 20
8.8
 30
0.0
 40
0.4
  1
129
 50
0.0
  0
TEXT
 62
7
  8
wysokosc
 10
-16.6
 20
8.4
 30
0.0
 40
0.4
  1
22.0
 50
0.0
  0
POINT
 62
7
  8
punkty
 10
-15.4
 20
8.8
 30
22.0
  0
TEXT
 62
7
  8
tekst
 10
-17.6
 20
2.2
 30
0.0
 40
0.4
  1
130
 50
0.0
  0
TEXT
 62
7
  8
wysokosc
 10
-18.8
 20
1.8000000000000003
 30
0.0
 40
0.4
  1
49.0
 50
0.0
  0
POINT
 62
7
  8
punkty
 10
-17.6
 20
2.2
 30
49.0
  0
TEXT
 62
7
  8
tekst
 10
-17.6
 20
0.0
 30
0.0
 40
0.4
  1
131
 50
0.0
  0
TEXT
 62
7
  8
wysokosc
 10
-18.8
 20
-0.4
 30
0.0
 40
0.4
  1
16.0
 50
0.0
  0
POINT
 62
7
  8
punkty
 10
-17.6
 20
0.0
 30
16.0
  0
TEXT
 62
7
  8
tekst
 10
-17.6
 20
-2.2
 30
0.0
 40
0.4
  1
132
 50
0.0
  0
TEXT
 62
7
  8
wysokosc
 10
-18.8
 20
-2.6
 30
0.0
 40
0.4
  1
84.0
 50
0.0
  0
POINT
 62
7
  8
punkty
 10
-17.6
 20
-2.2
 30
84.0
  0
TEXT
 62
7
  8
tekst
 10
-17.6
 20
-4.4
 30
0.0
 40
0.4
  1
133
 50
0.0
  0
TEXT
 62
7
  8
wysokosc
 10
-18.8
 20
-4.800000000000001
 30
0.0
 40
0.4
  1
9.0
 50
0.0
  0
POINT
 62
7
  8
punkty
 10
-17.6
 20
-4.4
 30
9.0
  0
TEXT
 62
7
  8
tekst
 10
-2.2
 20
-11.0
 30
0.0
 40
0.4
  1
134
 50
0.0
  0
TEXT
 62
7
  8
wysokosc
 10
-3.4000000000000004
 20
-11.4
 30
0.0
 40
0.4
  1
8.0
 50
0.0
  0
POINT
 62
7
  8
punkty
 10
-2.2
 20
-11.0
 30
8.0
  0
TEXT
 62
7
  8
tekst
 10
0.0
 20
-11.0
 30
0.0
 40
0.4
  1
135
 50
0.0
  0
TEXT
 62
7
  8
wysokosc
 10
-1.2
 20
-11.4
 30
0.0
 40
0.4
  1
50.0
 50
0.0
  0
POINT
 62
7
  8
punkty
 10
0.0
 20
-11.0
 30
50.0
  0
TEXT
 62
7
  8
tekst
 10
2.2
 20
-11.0
 30
0.0
 40
0.4
  1
136
 50
0.0
  0
TEXT
 62
7
  8
wysokosc
 10
1.0000000000000002
 20
-11.4
 30
0.0
 40
0.4
  1
79.0
 50
0.0
  0
POINT
 62
7
  8
punkty
 10
2.2
 20
-11.0
 30
79.0
  0
TEXT
 62
7
  8
tekst
 10
4.4
 20
-11.0
 30
0.0
 40
0.4
  1
137
 50
0.0
  0
TEXT
 62
7
  8
wysokosc
 10
3.2
 20
-11.4
 30
0.0
 40
0.4
  1
75.0
 50
0.0
  0
POINT
 62
7
  8
punkty
 10
4.4
 20
-11.0
 30
75.0
  0
TEXT
 62
7
  8
tekst
 10
17.6
 20
-4.4
 30
0.0
 40
0.4
  1
138
 50
0.0
  0
TEXT
 62
7
  8
wysokosc
 10
16.400000000000002
 20
-4.800000000000001
 30
0.0
 40
0.4
  1
35.0
 50
0.0
  0
POINT
 62
7
  8
punkty
 10
17.6
 20
-4.4
 30
35.0
  0
TEXT
 62
7
  8
tekst
 10
19.8
 20
-4.4
 30
0.0
 40
0.4
  1
139
 50
0.0
  0
TEXT
 62
7
  8
wysokosc
 10
18.6
 20
-4.800000000000001
 30
0.0
 40
0.4
  1
10.0
 50
0.0
  0
POINT
 62
7
  8
punkty
 10
19.8
 20
-4.4
 30
10.0
  0
TEXT
 62
7
  8
tekst
 10
19.8
 20
-2.2
 30
0.0
 40
0.4
  1
140
 50
0.0
  0
TEXT
 62
7
  8
wysokosc
 10
18.6
 20
-2.6
 30
0.0
 40
0.4
  1
18.0
 50
0.0
  0
POINT
 62
7
  8
punkty
 10
19.8
 20
-2.2
 30
18.0
  0
TEXT
 62
7
  8
tekst
 10
19.8
 20
0.0
 30
0.0
 40
0.4
  1
141
 50
0.0
  0
TEXT
 62
7
  8
wysokosc
 10
18.6
 20
-0.4
 30
0.0
 40
0.4
  1
15.0
 50
0.0
  0
POINT
 62
7
  8
punkty
 10
19.8
 20
0.0
 30
15.0
  0
TEXT
 62
7
  8
tekst
 10
19.8
 20
2.2
 30
0.0
 40
0.4
  1
142
 50
0.0
  0
TEXT
 62
7
  8
wysokosc
 10
18.6
 20
1.8000000000000003
 30
0.0
 40
0.4
  1
68.0
 50
0.0
  0
POINT
 62
7
  8
punkty
 10
19.8
 20
2.2
 30
68.0
  0
TEXT
 62
7
  8
tekst
 10
17.6
 20
4.4
 30
0.0
 40
0.4
  1
143
 50
0.0
  0
TEXT
 62
7
  8
wysokosc
 10
16.400000000000002
 20
4.0
 30
0.0
 40
0.4
  1
61.0
 50
0.0
  0
POINT
 62
7
  8
punkty
 10
17.6
 20
4.4
 30
61.0
  0
TEXT
 62
7
  8
tekst
 10
17.6
 20
6.6
 30
0.0
 40
0.4
  1
144
 50
0.0
  0
TEXT
 62
7
  8
wysokosc
 10
16.400000000000002
 20
6.199999999999999
 30
0.0
 40
0.4
  1
22.0
 50
0.0
  0
POINT
 62
7
  8
punkty
 10
17.6
 20
6.6
 30
22.0
  0
TEXT
 62
7
  8
tekst
 10
15.4
 20
11.0
 30
0.0
 40
0.4
  1
145
 50
0.0
  0
TEXT
 62
7
  8
wysokosc
 10
14.200000000000001
 20
10.6
 30
0.0
 40
0.4
  1
58.0
 50
0.0
  0
POINT
 62
7
  8
punkty
 10
15.4
 20
11.0
 30
58.0
  0
TEXT
 62
7
  8
tekst
 10
15.4
 20
13.2
 30
0.0
 40
0.4
  1
146
 50
0.0
  0
TEXT
 62
7
  8
wysokosc
 10
14.200000000000001
 20
12.799999999999999
 30
0.0
 40
0.4
  1
85.0
 50
0.0
  0
POINT
 62
7
  8
punkty
 10
15.4
 20
13.2
 30
85.0
  0
TEXT
 62
7
  8
tekst
 10
13.2
 20
11.0
 30
0.0
 40
0.4
  1
147
 50
0.0
  0
TEXT
 62
7
  8
wysokosc
 10
12.0
 20
10.6
 30
0.0
 40
0.4
  1
54.0
 50
0.0
  0
POINT
 62
7
  8
punkty
 10
13.2
 20
11.0
 30
54.0
  0
TEXT
 62
7
  8
tekst
 10
13.2
 20
13.2
 30
0.0
 40
0.4
  1
148
 50
0.0
  0
TEXT
 62
7
  8
wysokosc
 10
12.0
 20
12.799999999999999
 30
0.0
 40
0.4
  1
14.0
 50
0.0
  0
POINT
 62
7
  8
punkty
 10
13.2
 20
13.2
 30
14.0
  0
TEXT
 62
7
  8
tekst
 10
11.0
 20
11.0
 30
0.0
 40
0.4
  1
149
 50
0.0
  0
TEXT
 62
7
  8
wysokosc
 10
9.8
 20
10.6
 30
0.0
 40
0.4
  1
78.0
 50
0.0
  0
POINT
 62
7
  8
punkty
 10
11.0
 20
11.0
 30
78.0
  0
TEXT
 62
7
  8
tekst
 10
11.0
 20
13.2
 30
0.0
 40
0.4
  1
150
 50
0.0
  0
TEXT
 62
7
  8
wysokosc
 10
9.8
 20
12.799999999999999
 30
0.0
 40
0.4
  1
99.0
 50
0.0
  0
POINT
 62
7
  8
punkty
 10
11.0
 20
13.2
 30
99.0
  0
TEXT
 62
7
  8
tekst
 10
-8.8
 20
11.0
 30
0.0
 40
0.4
  1
151
 50
0.0
  0
TEXT
 62
7
  8
wysokosc
 10
-10.0
 20
10.6
 30
0.0
 40
0.4
  1
30.0
 50
0.0
  0
POINT
 62
7
  8
punkty
 10
-8.8
 20
11.0
 30
30.0
  0
TEXT
 62
7
  8
tekst
 10
-8.8
 20
13.2
 30
0.0
 40
0.4
  1
152
 50
0.0
  0
TEXT
 62
7
  8
wysokosc
 10
-10.0
 20
12.799999999999999
 30
0.0
 40
0.4
  1
83.0
 50
0.0
  0
POINT
 62
7
  8
punkty
 10
-8.8
 20
13.2
 30
83.0
  0
TEXT
 62
7
  8
tekst
 10
-11.0
 20
11.0
 30
0.0
 40
0.4
  1
153
 50
0.0
  0
TEXT
 62
7
  8
wysokosc
 10
-12.2
 20
10.6
 30
0.0
 40
0.4
  1
33.0
 50
0.0
  0
POINT
 62
7
  8
punkty
 10
-11.0
 20
11.0
 30
33.0
  0
TEXT
 62
7
  8
tekst
 10
-11.0
 20
13.2
 30
0.0
 40
0.4
  1
154
 50
0.0
  0
TEXT
 62
7
  8
wysokosc
 10
-12.2
 20
12.799999999999999
 30
0.0
 40
0.4
  1
45.0
 50
0.0
  0
POINT
 62
7
  8
punkty
 10
-11.0
 20
13.2
 30
45.0
  0
TEXT
 62
7
  8
tekst
 10
-13.2
 20
11.0
 30
0.0
 40
0.4
  1
155
 50
0.0
  0
TEXT
 62
7
  8
wysokosc
 10
-14.399999999999999
 20
10.6
 30
0.0
 40
0.4
  1
7.0
 50
0.0
  0
POINT
 62
7
  8
punkty
 10
-13.2
 20
11.0
 30
7.0
  0
TEXT
 62
7
  8
tekst
 10
-13.2
 20
13.2
 30
0.0
 40
0.4
  1
156
 50
0.0
  0
TEXT
 62
7
  8
wysokosc
 10
-14.399999999999999
 20
12.799999999999999
 30
0.0
 40
0.4
  1
83.0
 50
0.0
  0
POINT
 62
7
  8
punkty
 10
-13.2
 20
13.2
 30
83.0
  0
TEXT
 62
7
  8
tekst
 10
15.4
 20
-6.6
 30
0.0
 40
0.4
  1
157
 50
0.0
  0
TEXT
 62
7
  8
wysokosc
 10
14.200000000000001
 20
-7.0
 30
0.0
 40
0.4
  1
57.0
 50
0.0
  0
POINT
 62
7
  8
punkty
 10
15.4
 20
-6.6
 30
57.0
  0
ENDSEC
  0
EOF
